HIERARCHY
ROOT Hips
{
	OFFSET 0.000000 0.000000 0.000000
	CHANNELS 6 Xposition Yposition Zposition Xrotation Yrotation Zrotation
	JOINT LeftUpLeg_virtual
	{
		OFFSET 0.000000 0.000000 0.000000
		CHANNELS 3 Xrotation Yrotation Zrotation
		JOINT LeftUpLeg
		{
			OFFSET 15.427100 -6.655098 0.678600
			CHANNELS 3 Xrotation Yrotation Zrotation
			JOINT LeftLeg
			{
				OFFSET 4.081073 -39.591068 13.024000
				CHANNELS 3 Xrotation Yrotation Zrotation
				JOINT LeftFoot
				{
					OFFSET -4.081074 -37.707932 -15.979700
					CHANNELS 3 Xrotation Yrotation Zrotation
					JOINT LeftToeBase
					{
						OFFSET 5.346399 -15.068900 20.645000
						CHANNELS 3 Xrotation Yrotation Zrotation
						JOINT LeftToe_End
						{
							OFFSET 2.754700 0.931300 11.300900
							CHANNELS 3 Xrotation Yrotation Zrotation
							End Site
							{
								OFFSET 0 0 0
							}
						}
					}
				}
			}
		}
	}
	JOINT RightUpLeg_virtual
	{
		OFFSET 0.000000 0.000000 0.000000
		CHANNELS 3 Xrotation Yrotation Zrotation
		JOINT RightUpLeg
		{
			OFFSET -15.569500 -6.655098 0.678600
			CHANNELS 3 Xrotation Yrotation Zrotation
			JOINT RightLeg
			{
				OFFSET -4.081825 -39.591045 13.023800
				CHANNELS 3 Xrotation Yrotation Zrotation
				JOINT RightFoot
				{
					OFFSET 4.081824 -37.707954 -15.979600
					CHANNELS 3 Xrotation Yrotation Zrotation
					JOINT RightToeBase
					{
						OFFSET -5.346400 -15.068900 20.645000
						CHANNELS 3 Xrotation Yrotation Zrotation
						JOINT RightToe_End
						{
							OFFSET -2.754700 0.931300 11.300900
							CHANNELS 3 Xrotation Yrotation Zrotation
							End Site
							{
								OFFSET 0 0 0
							}
						}
					}
				}
			}
		}
	}
	JOINT Spine_virtual
	{
		OFFSET 0.000000 0.000000 0.000000
		CHANNELS 3 Xrotation Yrotation Zrotation
		JOINT Spine
		{
			OFFSET -0.279200 12.230698 -2.892100
			CHANNELS 3 Xrotation Yrotation Zrotation
			JOINT Spine1
			{
				OFFSET -0.232667 10.192268 -1.242267
				CHANNELS 3 Xrotation Yrotation Zrotation
				JOINT Spine1_split
				{
					OFFSET -0.232667 10.192268 -1.242267
					CHANNELS 3 Xrotation Yrotation Zrotation
					JOINT Spine2
					{
						OFFSET -0.232667 10.192268 -1.242267
						CHANNELS 3 Xrotation Yrotation Zrotation
						JOINT Neck_virtual
						{
							OFFSET 0.000000 0.000000 0.000000
							CHANNELS 3 Xrotation Yrotation Zrotation
							JOINT Neck
							{
								OFFSET -0.418800 17.814194 8.416900
								CHANNELS 3 Xrotation Yrotation Zrotation
								JOINT Head
								{
									OFFSET 0.000000 7.031097 3.806800
									CHANNELS 3 Xrotation Yrotation Zrotation
									JOINT HeadTop_End
									{
										OFFSET 0.000000 24.646606 12.978600
										CHANNELS 3 Xrotation Yrotation Zrotation
										End Site
										{
											OFFSET 0 0 0
										}
									}
								}
							}
						}
						JOINT LeftShoulder_virtual
						{
							OFFSET 0.000000 0.000000 0.000000
							CHANNELS 3 Xrotation Yrotation Zrotation
							JOINT LeftShoulder
							{
								OFFSET 8.476499 7.247704 -3.868750
								CHANNELS 3 Xrotation Yrotation Zrotation
								JOINT LeftShoulder_split
								{
									OFFSET 8.476499 7.247704 -3.868750
									CHANNELS 3 Xrotation Yrotation Zrotation
									JOINT LeftArm
									{
										OFFSET 9.308998 -2.777710 0.208600
										CHANNELS 3 Xrotation Yrotation Zrotation
										JOINT LeftForeArm
										{
											OFFSET 29.972298 0.000000 0.000000
											CHANNELS 3 Xrotation Yrotation Zrotation
											JOINT LeftHand
											{
												OFFSET 26.026505 0.000000 0.000000
												CHANNELS 3 Xrotation Yrotation Zrotation
												End Site
												{
													OFFSET 0 0 0
												}
											}
										}
									}
								}
							}
						}
						JOINT RightShoulder_virtual
						{
							OFFSET 0.000000 0.000000 0.000000
							CHANNELS 3 Xrotation Yrotation Zrotation
							JOINT RightShoulder
							{
								OFFSET -7.570500 7.247704 -3.868750
								CHANNELS 3 Xrotation Yrotation Zrotation
								JOINT RightShoulder_split
								{
									OFFSET -7.570500 7.247704 -3.868750
									CHANNELS 3 Xrotation Yrotation Zrotation
									JOINT RightArm
									{
										OFFSET -9.308998 -2.777710 0.208500
										CHANNELS 3 Xrotation Yrotation Zrotation
										JOINT RightForeArm
										{
											OFFSET -29.972300 0.000000 0.000000
											CHANNELS 3 Xrotation Yrotation Zrotation
											JOINT RightHand
											{
												OFFSET -26.026505 0.000000 0.000000
												CHANNELS 3 Xrotation Yrotation Zrotation
												End Site
												{
													OFFSET 0 0 0
												}
											}
										}
									}
								}
							}
						}
					}
				}
			}
		}
	}
}
MOTION
Frames: 7
Frame Time: 0.03333333
3.560897 79.016693 0.283890 0.000000 0.000000 0.000000 8.059448 -12.197366 1.988599 -49.679183 4.092316 22.441951 38.265667 3.489873 5.269844 6.880954 -0.058936 -20.152360 0.254307 0.549828 -0.483656 0.000000 0.000000 0.000000 7.574345 -12.161528 2.158038 -24.325485 -3.281216 -34.831636 31.396863 2.041855 1.050633 -9.652680 -8.320524 32.146323 -0.079073 0.575355 -0.143158 0.000000 0.000000 0.000000 8.450559 -10.640254 1.546581 8.037254 2.843231 -2.344269 6.265179 1.645719 -1.217455 0.495703 2.119870 0.307040 0.000000 0.000000 0.000000 6.399655 1.249960 -0.516585 -1.913196 -0.054967 -3.222970 -10.654795 -3.872635 4.571207 0.000000 0.000000 0.000000 5.975312 1.687254 -1.005955 5.378974 -36.297019 3.905323 -2.193663 -3.476565 -1.336442 -77.594050 -33.724196 -28.222140 -0.106928 -23.943037 1.530144 0.000000 0.000000 0.000000 5.381132 1.442656 -0.692876 5.428258 28.592591 -19.546716 2.254795 -0.547740 1.576197 -38.024657 30.569092 12.306603 0.797755 39.731852 -0.501154 0.000000 0.000000 0.000000 
3.778121 78.709343 0.439091 0.000000 0.000000 0.000000 8.329898 -11.868408 1.771848 -50.637291 3.981316 22.593835 38.986938 3.358722 5.143228 6.376188 -0.418504 -19.999438 0.311540 0.539498 -0.491588 0.000000 0.000000 0.000000 7.787993 -11.942018 1.935311 -24.452504 -3.433155 -34.807962 31.693126 2.029804 0.932217 -9.854805 -8.698564 32.102371 0.075185 0.598964 -0.168728 0.000000 0.000000 0.000000 8.882927 -10.633679 1.357643 8.103667 2.638783 -2.397793 6.215113 1.377242 -1.247816 0.574945 2.338517 0.245541 0.000000 0.000000 0.000000 6.266787 1.008139 -0.564400 -2.641575 -0.326294 -2.539340 -10.930651 -4.066782 5.034768 0.000000 0.000000 0.000000 5.837793 1.506780 -1.100647 5.261049 -36.618188 4.126542 -0.750194 -3.760721 -0.793985 -76.886155 -33.792511 -26.950048 -0.180852 -23.611172 1.656238 0.000000 0.000000 0.000000 5.461348 1.336700 -0.780005 5.078763 28.951659 -19.396971 2.580906 -1.253597 1.551052 -40.509131 28.587079 13.674215 0.717233 41.178309 -0.320650 0.000000 0.000000 0.000000 
3.965736 78.367500 0.617657 0.000000 0.000000 0.000000 8.514286 -11.554921 1.517772 -51.464150 3.955274 22.783469 39.670941 3.278408 5.086216 5.813464 -0.626656 -19.788708 0.313997 0.536539 -0.516564 0.000000 0.000000 0.000000 7.966631 -11.612348 1.649972 -24.450684 -3.574248 -34.777308 31.896355 1.972178 0.808236 -10.115480 -9.072898 31.975968 0.254399 0.603170 -0.146589 0.000000 0.000000 0.000000 9.232848 -10.617123 1.149329 8.187138 2.465254 -2.314870 6.234296 1.199143 -1.237929 0.755870 2.223694 0.191106 0.000000 0.000000 0.000000 6.139991 0.845304 -0.612694 -3.597237 -0.694135 -1.679754 -11.164722 -4.115419 5.410885 0.000000 0.000000 0.000000 5.876219 1.330711 -1.176449 5.018815 -36.597506 3.998350 0.245036 -3.764100 -0.368359 -76.305043 -34.035536 -26.565181 -0.503692 -22.696080 1.485759 0.000000 0.000000 0.000000 5.650591 1.333585 -0.816173 4.547764 28.841276 -18.639970 2.602471 -1.495737 1.268330 -42.534935 27.543981 15.344088 0.684363 41.266599 -0.247566 0.000000 0.000000 0.000000 
4.134307 78.030579 0.793068 0.000000 0.000000 0.000000 8.569873 -11.363223 1.247865 -52.066385 4.015692 23.024168 40.290234 3.271102 5.089605 5.263155 -0.675696 -19.541287 0.197726 0.546995 -0.532944 0.000000 0.000000 0.000000 8.110651 -11.299874 1.354135 -24.418363 -3.689669 -34.774542 31.993552 1.906899 0.689605 -10.331960 -9.339171 31.850787 0.423837 0.588789 -0.085626 0.000000 0.000000 0.000000 9.421301 -10.611013 0.958398 8.269311 2.364730 -2.132074 6.307209 1.157362 -1.199423 0.921897 2.115275 0.083877 0.000000 0.000000 0.000000 6.044231 0.806530 -0.661255 -4.674333 -1.105984 -0.937039 -11.295588 -4.030296 5.665551 0.000000 0.000000 0.000000 6.059095 1.207372 -1.217173 4.746052 -36.305157 3.806680 0.669857 -3.406751 -0.272155 -76.134411 -34.817753 -26.870623 -0.927231 -21.606190 1.126080 0.000000 0.000000 0.000000 5.920533 1.415648 -0.807988 4.022936 28.426076 -17.723653 2.307418 -1.369196 0.761330 -43.407601 27.856073 16.679091 0.801129 39.861759 -0.379058 0.000000 0.000000 0.000000 
4.305210 77.757980 0.937515 0.000000 0.000000 0.000000 8.522741 -11.308550 0.999574 -52.408103 4.146581 23.282590 40.791430 3.298727 5.124041 4.779255 -0.641496 -19.325902 0.020073 0.569787 -0.525261 0.000000 0.000000 0.000000 8.164199 -11.141846 1.092155 -24.368529 -3.774968 -34.817702 31.904654 1.851481 0.594571 -10.471892 -9.430493 31.810448 0.588129 0.564535 -0.010318 0.000000 0.000000 0.000000 9.431291 -10.632296 0.816635 8.328097 2.345590 -1.915805 6.394371 1.255936 -1.168113 0.987716 2.086080 -0.147372 0.000000 0.000000 0.000000 5.989648 0.882189 -0.708334 -5.739718 -1.453097 -0.566586 -11.269708 -3.828886 5.765785 0.000000 0.000000 0.000000 6.295283 1.181574 -1.212016 4.499479 -35.903193 3.710831 0.896940 -2.953440 -0.477004 -76.060399 -35.896042 -27.413999 -1.320269 -21.191738 0.750249 0.000000 0.000000 0.000000 6.177384 1.535132 -0.799536 3.637726 27.828646 -17.003790 1.883164 -1.134251 0.258626 -43.052544 29.113217 17.559190 1.020472 37.922453 -0.672982 0.000000 0.000000 0.000000 
4.482906 77.617561 0.992233 0.000000 0.000000 0.000000 8.405463 -11.410073 0.807304 -52.514582 4.297990 23.503461 41.101381 3.328593 5.170398 4.417479 -0.614627 -19.182608 -0.100903 0.600889 -0.493454 0.000000 0.000000 0.000000 8.147903 -11.146077 0.900079 -24.274786 -3.840554 -34.868676 31.598829 1.800333 0.518617 -10.532712 -9.368932 31.863717 0.718221 0.538624 0.049914 0.000000 0.000000 0.000000 9.323977 -10.659400 0.739172 8.327864 2.381979 -1.735097 6.449163 1.435785 -1.166632 0.705810 2.202022 -0.371546 0.000000 0.000000 0.000000 5.962929 1.045964 -0.766176 -6.630573 -1.634960 -0.659780 -11.010967 -3.572774 5.718861 0.000000 0.000000 0.000000 6.493003 1.248167 -1.189362 4.270584 -35.576809 3.671445 1.013307 -2.633878 -0.652384 -75.714532 -36.702469 -27.631421 -1.476407 -21.884039 0.525487 0.000000 0.000000 0.000000 6.366489 1.636536 -0.809493 3.424193 27.098046 -16.685768 1.226113 -1.085982 -0.235718 -41.674382 30.344782 17.917027 1.340801 36.607591 -1.093544 0.000000 0.000000 0.000000 
4.638143 77.652313 1.001369 0.000000 0.000000 0.000000 8.285113 -11.614350 0.686014 -52.442920 4.453657 23.647121 41.199745 3.339922 5.202038 4.191590 -0.649499 -19.111064 -0.062686 0.634661 -0.449286 0.000000 0.000000 0.000000 8.106178 -11.282916 0.787100 -24.072578 -3.895799 -34.854295 31.113250 1.720961 0.460545 -10.504679 -9.246117 31.953076 0.754492 0.517576 0.077407 0.000000 0.000000 0.000000 9.181517 -10.693208 0.700961 8.242584 2.449132 -1.636621 6.463120 1.628814 -1.208218 0.332786 2.338426 -0.547367 0.000000 0.000000 0.000000 5.937825 1.217222 -0.851686 -7.216482 -1.606688 -1.152212 -10.532003 -3.390909 5.582809 0.000000 0.000000 0.000000 6.610069 1.361453 -1.194503 4.116393 -35.568558 3.707421 1.246391 -2.372889 -0.547605 -75.290432 -37.178332 -27.567663 -1.347871 -23.145259 0.495309 0.000000 0.000000 0.000000 6.487390 1.696993 -0.848258 3.276250 26.301735 -16.737348 0.657519 -1.262328 -0.607077 -40.021077 30.912214 18.121470 1.655138 36.594859 -1.523975 0.000000 0.000000 0.000000 
